# File created by Blade
# Date/Time:  Tue Apr 07 20:49:23 2015
# Frame Rate: 120.000 fps
#------------------------------------------------------
:FULLY-SPECIFIED
:DEGREES
954
root 3.084915 34.733091 -7.469768 13.173128 52.610524 -68.096274
Spine -27.268917 -13.648627 11.615876
Head -15.278356 30.634187 28.222786
LeftShoulder -26.157470 43.233471 17.934593
LeftArm 63.929294 -38.539666 -95.694316
LeftForeArm 15.518107 -0.000000 21.893934
LeftHand 9.205779 -0.000000 25.120526
LeftHandThumb1 -26.253704 0.000000 33.147579
RightShoulder -24.055600 -13.049578 -14.630783
RightArm -27.673609 46.177289 55.587824
RightForeArm 77.754437 0.000000 -1.816348
RightHand 15.650224 -0.000000 16.412891
RightHandThumb1 -24.326973 -0.000000 -32.862282
LeftUpLeg -58.448888 28.176933 23.760362
LeftLeg -13.573522 -0.000000 0.000000
LeftFoot 7.237831 11.962873 -28.598070
LeftToeBase -5.763747 -0.000000 0.000000
RightUpLeg 7.973882 13.921868 -21.643925
RightLeg 107.976278 -0.000000 -0.000000
RightFoot 53.403692 15.091812 1.410583
RightToeBase 21.739887 -0.000000 -0.000000
955
root 3.100903 34.725965 -7.461325 12.736632 52.454043 -68.124926
Spine -27.080505 -13.538211 11.541867
Head -14.776160 30.232232 28.422506
LeftShoulder -26.221006 43.391612 17.670005
LeftArm 63.845140 -37.845592 -95.657149
LeftForeArm 15.455892 -0.000000 21.329674
LeftHand 9.296436 0.000000 24.993480
LeftHandThumb1 -26.253704 0.000000 33.147579
RightShoulder -23.815779 -13.106381 -14.511707
RightArm -27.165030 45.740154 55.976648
RightForeArm 77.539819 -0.000000 -2.003036
RightHand 15.867655 0.000000 15.188134
RightHandThumb1 -24.326973 -0.000000 -32.862282
LeftUpLeg -58.132170 28.425828 23.406531
LeftLeg -13.632970 -0.000000 0.000000
LeftFoot 7.125124 11.480510 -29.303648
LeftToeBase -5.155887 -0.000000 0.000000
RightUpLeg 7.971169 14.232253 -21.409855
RightLeg 107.817511 -0.000000 -0.000000
RightFoot 53.537612 15.276534 1.728011
RightToeBase 21.578258 -0.000000 -0.000000
956
root 3.118872 34.719520 -7.448190 12.283703 52.286838 -68.187455
Spine -26.922801 -13.389001 11.445665
Head -14.237710 29.817549 28.708558
LeftShoulder -26.216362 43.544307 17.523737
LeftArm 63.639159 -37.077383 -95.459054
LeftForeArm 15.296667 0.000000 20.711319
LeftHand 9.378450 -0.000000 24.859118
LeftHandThumb1 -26.253704 0.000000 33.147579
RightShoulder -23.561986 -13.132692 -14.418526
RightArm -26.738683 45.217065 56.332269
RightForeArm 77.203686 -0.000000 -2.213374
RightHand 15.977183 0.000000 13.906192
RightHandThumb1 -24.326973 -0.000000 -32.862282
LeftUpLeg -57.804203 28.722363 23.053195
LeftLeg -13.745221 -0.000000 0.000000
LeftFoot 7.085937 10.979886 -30.075222
LeftToeBase -4.585865 -0.000000 0.000000
RightUpLeg 7.964184 14.532383 -21.130376
RightLeg 107.564732 -0.000000 -0.000000
RightFoot 53.784707 15.074884 2.264731
RightToeBase 21.807194 -0.000000 -0.000000
957
root 3.137766 34.717983 -7.434774 11.869783 52.089252 -68.254003
Spine -26.795710 -13.220086 11.351723
Head -13.744481 29.381799 28.976553
LeftShoulder -26.105378 43.567097 17.515787
LeftArm 63.123268 -36.340351 -95.033328
LeftForeArm 14.960074 0.000000 20.091634
LeftHand 9.536354 -0.000000 24.761817
LeftHandThumb1 -26.253704 0.000000 33.147579
RightShoulder -23.318206 -13.122647 -14.382571
RightArm -26.342643 44.679868 56.728238
RightForeArm 76.983338 0.000000 -2.405836
RightHand 16.060230 -0.000000 12.560877
RightHandThumb1 -24.326973 -0.000000 -32.862282
LeftUpLeg -57.491186 29.056331 22.713280
LeftLeg -13.850763 -0.000000 0.000000
LeftFoot 7.046267 10.520942 -30.833209
LeftToeBase -3.926854 -0.000000 0.000000
RightUpLeg 7.877978 14.839067 -20.868499
RightLeg 107.277528 -0.000000 -0.000000
RightFoot 54.295703 14.361857 3.064673
RightToeBase 20.659827 -0.000000 -0.000000
958
root 3.155212 34.719618 -7.418297 11.499826 51.902457 -68.310312
Spine -26.710286 -13.084615 11.229607
Head -13.275924 28.922583 29.319338
LeftShoulder -26.089101 43.662432 17.495553
LeftArm 62.663854 -35.509320 -94.591112
LeftForeArm 14.546573 0.000000 19.484362
LeftHand 9.564613 -0.000000 24.689022
LeftHandThumb1 -26.253704 0.000000 33.147579
RightShoulder -23.068783 -13.053639 -14.401325
RightArm -25.904510 43.974391 57.217978
RightForeArm 76.634993 -0.000000 -2.668850
RightHand 16.240427 0.000000 10.675253
RightHandThumb1 -24.326973 -0.000000 -32.862282
LeftUpLeg -57.209714 29.392500 22.378836
LeftLeg -13.952030 -0.000000 0.000000
LeftFoot 7.113813 10.085686 -31.444334
LeftToeBase -3.460674 -0.000000 0.000000
RightUpLeg 7.739297 15.016646 -20.636743
RightLeg 106.944512 -0.000000 -0.000000
RightFoot 54.563062 13.344359 3.711974
RightToeBase 20.572129 -0.000000 -0.000000
959
root 3.174530 34.720340 -7.404695 11.221085 51.741995 -68.259797
Spine -26.651265 -12.966890 11.033974
Head -12.815650 28.432922 29.644071
LeftShoulder -26.040745 43.859916 17.490795
LeftArm 62.307792 -34.677152 -94.255263
LeftForeArm 14.175908 -0.000000 18.926772
LeftHand 9.643277 0.000000 24.630974
LeftHandThumb1 -26.253704 0.000000 33.147579
RightShoulder -22.848289 -13.104426 -14.473518
RightArm -25.660468 43.702454 57.622960
RightForeArm 75.293683 -0.000000 -2.509989
RightHand 16.255466 -0.000000 7.653287
RightHandThumb1 -24.326973 -0.000000 -32.862282
LeftUpLeg -56.955774 29.660955 22.003720
LeftLeg -14.019753 -0.000000 0.000000
LeftFoot 7.175140 9.716726 -31.892530
LeftToeBase -3.102032 -0.000000 0.000000
RightUpLeg 7.537717 14.947607 -20.502153
RightLeg 106.444479 -0.000000 -0.000000
RightFoot 55.262492 11.993635 3.879489
RightToeBase 19.761104 -0.000000 -0.000000
960
root 3.190698 34.726756 -7.390355 10.945886 51.620410 -68.247410
Spine -26.601363 -12.921113 10.890349
Head -12.458931 28.053459 29.922553
LeftShoulder -26.071398 43.995582 17.440048
LeftArm 61.839558 -33.825659 -93.785339
LeftForeArm 13.726322 0.000000 18.463123
LeftHand 9.596548 -0.000000 24.595642
LeftHandThumb1 -26.253704 0.000000 33.147579
RightShoulder -22.629034 -13.189417 -14.596204
RightArm -25.349013 43.523140 58.149699
RightForeArm 73.740910 -0.000000 -2.233066
RightHand 15.954789 -0.000000 4.960761
RightHandThumb1 -24.326973 -0.000000 -32.862282
LeftUpLeg -56.782897 29.896279 21.653292
LeftLeg -14.024086 -0.000000 0.000000
LeftFoot 7.130709 9.464287 -32.340298
LeftToeBase -2.656153 -0.000000 0.000000
RightUpLeg 7.308376 14.831953 -20.344554
RightLeg 105.943111 -0.000000 -0.000000
RightFoot 55.442340 11.230497 3.951936
RightToeBase 19.482282 -0.000000 -0.000000
961
root 3.206261 34.734606 -7.375591 10.640645 51.544926 -68.215904
Spine -26.482601 -12.885479 10.689834
Head -12.216084 27.615675 30.168513
LeftShoulder -26.019725 44.088190 17.450787
LeftArm 61.386653 -33.004486 -93.384771
LeftForeArm 13.471709 0.000000 18.046219
LeftHand 9.617374 -0.000000 24.727476
LeftHandThumb1 -26.253704 0.000000 33.147579
RightShoulder -22.438193 -13.300075 -14.699484
RightArm -25.156518 43.530615 58.599424
RightForeArm 72.260605 -0.000000 -1.711106
RightHand 15.316255 -0.000000 1.335055
RightHandThumb1 -24.326973 -0.000000 -32.862282
LeftUpLeg -56.625264 30.054501 21.293096
LeftLeg -13.974669 -0.000000 0.000000
LeftFoot 7.062387 9.291338 -32.644462
LeftToeBase -2.203151 -0.000000 0.000000
RightUpLeg 7.145931 14.662283 -20.159426
RightLeg 105.429288 -0.000000 -0.000000
RightFoot 55.118501 10.787823 3.988425
RightToeBase 19.772170 -0.000000 -0.000000
962
root 3.221415 34.743143 -7.362016 10.325212 51.491049 -68.156214
Spine -26.307445 -12.893941 10.471402
Head -12.049220 27.207293 30.382848
LeftShoulder -26.009648 44.157427 17.400537
LeftArm 60.965638 -32.251430 -93.042068
LeftForeArm 13.101236 0.000000 17.766259
LeftHand 9.680813 -0.000000 24.683064
LeftHandThumb1 -26.253704 0.000000 33.147579
RightShoulder -22.319180 -13.357346 -14.839090
RightArm -24.671289 43.295585 59.346511
RightForeArm 71.135694 -0.000000 -1.343834
RightHand 15.177455 -0.000000 -2.091930
RightHandThumb1 -24.326973 -0.000000 -32.862282
LeftUpLeg -56.509403 30.174690 20.874699
LeftLeg -13.836938 -0.000000 0.000000
LeftFoot 6.907646 9.144015 -32.835608
LeftToeBase -1.359900 -0.000000 0.000000
RightUpLeg 7.002779 14.380414 -19.983331
RightLeg 104.824384 -0.000000 -0.000000
RightFoot 54.741170 10.143231 3.941368
RightToeBase 20.092297 -0.000000 -0.000000
963
root 3.237639 34.752173 -7.347599 9.986299 51.476359 -68.072524
Spine -26.076293 -12.941134 10.228151
Head -11.912667 26.779277 30.528985
LeftShoulder -26.070316 44.321566 17.207699
LeftArm 60.756568 -31.506056 -92.784389
LeftForeArm 12.979873 -0.000000 17.482505
LeftHand 9.655839 -0.000000 24.837321
LeftHandThumb1 -26.253704 0.000000 33.147579
RightShoulder -22.144967 -13.478920 -14.936793
RightArm -24.191898 43.244198 60.064827
RightForeArm 69.795918 -0.000000 -0.935640
RightHand 14.807399 -0.000000 -5.392744
RightHandThumb1 -24.326973 -0.000000 -32.862282
LeftUpLeg -56.430822 30.238509 20.387311
LeftLeg -13.636007 -0.000000 0.000000
LeftFoot 6.719869 9.076261 -32.800980
LeftToeBase -1.000843 -0.000000 0.000000
RightUpLeg 6.908342 14.000711 -19.794879
RightLeg 104.128062 -0.000000 -0.000000
RightFoot 54.328488 9.513426 3.924941
RightToeBase 20.539616 -0.000000 -0.000000
